<mxfile host="app.diagrams.net" modified="2024-03-23T03:20:13.474Z" agent="Mozilla/5.0 (Windows NT 10.0; Win64; x64) AppleWebKit/537.36 (KHTML, like Gecko) Chrome/121.0.0.0 Safari/537.36" version="24.0.7" etag="W3g1PmaH-5On9Dcki_Hs" type="github">
  <diagram name="Trang-1" id="6YHqx1zUBXzBkXa8vtJP">
    <mxGraphModel>
      <root>
        <mxCell id="0" />
        <mxCell id="1" parent="0" />
      </root>
    </mxGraphModel>
  </diagram>
</mxfile>
